<?xml version="1.0" encoding="UTF-8" standalone="no"?>
<!-- Created with Inkscape (http://www.inkscape.org/) -->

<svg
   xmlns:dc="http://purl.org/dc/elements/1.1/"
   xmlns:cc="http://creativecommons.org/ns#"
   xmlns:rdf="http://www.w3.org/1999/02/22-rdf-syntax-ns#"
   xmlns:svg="http://www.w3.org/2000/svg"
   xmlns="http://www.w3.org/2000/svg"
   xmlns:sodipodi="http://sodipodi.sourceforge.net/DTD/sodipodi-0.dtd"
   xmlns:inkscape="http://www.inkscape.org/namespaces/inkscape"
   width="40"
   height="40"
   viewBox="0 0 31.75 31.749999"
   version="1.1"
   id="svg1978"
   inkscape:version="0.92.3 (2405546, 2018-03-11)"
   sodipodi:docname="barclays.svg">
  <defs
     id="defs1972" />
  <sodipodi:namedview
     id="base"
     pagecolor="#ffffff"
     bordercolor="#666666"
     borderopacity="1.0"
     inkscape:pageopacity="0.0"
     inkscape:pageshadow="2"
     inkscape:zoom="1.979899"
     inkscape:cx="204.05521"
     inkscape:cy="98.022706"
     inkscape:document-units="mm"
     inkscape:current-layer="layer1"
     showgrid="false"
     fit-margin-top="0"
     fit-margin-left="0"
     fit-margin-right="0"
     fit-margin-bottom="0"
     units="px"
     inkscape:window-width="2256"
     inkscape:window-height="1410"
     inkscape:window-x="-11"
     inkscape:window-y="-11"
     inkscape:window-maximized="1" />
  <metadata
     id="metadata1975">
    <rdf:RDF>
      <cc:Work
         rdf:about="">
        <dc:format>image/svg+xml</dc:format>
        <dc:type
           rdf:resource="http://purl.org/dc/dcmitype/StillImage" />
        <dc:title />
      </cc:Work>
    </rdf:RDF>
  </metadata>
  <g
     inkscape:label="Layer 1"
     inkscape:groupmode="layer"
     id="layer1"
     transform="translate(-1.1355793,-66.838757)">
    <g
       id="g1897"
       transform="matrix(0.32084776,0,0,0.32084776,2.7510293,66.58059)">
      <g
         id="g52" />
      <g
         id="g57">
        <path
           inkscape:connector-curvature="0"
           class="st3"
           d="M 90.072026,37.617407 C 89.860359,35.527198 87.928901,17.588448 78.774317,14.281156 c -4.445,-1.613958 -8.440208,0 -8.440208,0 -0.9525,0.396875 -3.65125,1.455208 -4.709583,4.180417 -0.211667,0.555625 -0.79375,1.984375 -0.211667,3.598333 0.661458,1.931458 2.434167,2.69875 2.751667,2.804583 -0.02646,0.02646 -0.07937,0.02646 -0.132292,0.05292 -0.767292,0.343958 -7.328958,3.227917 -11.377083,-0.05292 -1.561042,-1.27 -2.196042,-2.936875 -2.196042,-2.936875 -0.15875,-0.423333 -0.238125,-0.79375 -0.396875,-1.481666 -0.3175,-1.322917 -0.47625,-2.407709 -0.555625,-3.148542 -0.132292,-2.037292 -0.3175,-3.81 -0.502708,-5.23875 -0.396875,-2.9633331 -0.899584,-5.3445831 -2.328334,-7.1437501 -0.07937,-0.105833 -0.15875,-0.185208 -0.15875,-0.185208 -1.217083,-1.402292 -2.69875,-1.931459 -4.101041,-2.434167 0,0 -3.01625,-1.058333 -6.773334,-0.15875 -0.687916,0.15875 -1.005416,0.47625 -1.137708,0.608542 -0.185208,0.238125 -0.291042,0.449791 -0.343958,0.608541 -4.841875,-0.132291 -8.493125,1.402292 -9.419167,3.095625 -0.926042,1.693334 -0.687917,3.148542 -0.687917,3.148542 0.07937,0.4233331 0.185209,0.7408331 0.291042,0.9525001 3.757083,-1.4816671 7.249583,-1.2170831 8.440208,0.449792 0.635,0.899583 0.846667,2.566458 0.899584,3.01625 0.15875,1.27 0.02646,2.328333 -0.105834,3.01625 0,0.02646 0.02646,0.05292 0.05292,0.105833 -0.02646,0 -0.02646,0 -0.05292,0.02646 -0.07937,1.058334 -0.3175,2.831042 -1.322916,4.736042 -0.449792,0.846667 -1.058334,2.010833 -2.196042,2.936875 -4.048125,3.280833 -10.609793,0.423333 -11.377084,0.05292 -0.05292,-0.02646 -0.105834,-0.05292 -0.132292,-0.05292 0.3175,-0.132292 2.06375,-0.899583 2.751667,-2.804583 0.555625,-1.613959 0,-3.042709 -0.211667,-3.598334 -1.058333,-2.69875 -3.757083,-3.783541 -4.709583,-4.180416 0,0 -3.995209,-1.613959 -8.440209,0 -9.1810379,3.307289 -11.0860379,21.24604 -11.2977079,23.336248 -1.71979,16.271875 5.3975,29.474584 9.4456249,35.71875 0.873125,-0.582083 1.799167,-1.296458 2.751667,-2.143125 2.8575,-2.619375 4.524375,-5.529791 5.476875,-7.672916 0.132291,0.846666 0.211666,1.74625 0.211666,2.69875 0,5.503333 -2.778125,9.68375 -4.392083,11.721041 -0.105833,0.264584 -0.238125,0.767292 0,1.137709 0.3175,0.47625 1.190625,0.370416 1.534583,0.343958 1.957917,-0.238125 5.582709,-3.757083 9.2075,-9.68375 1.984376,-3.254375 3.915835,-7.14375 4.021668,-7.355417 0.07937,-0.132291 0.132292,-0.264583 0.132292,-0.264583 0.02646,-0.02646 0.02646,-0.07937 0.05292,-0.07937 0,0 0.02646,-0.05292 0.07937,-0.185208 0.15875,0.449791 0.3175,0.899583 0.502709,1.349375 0.02646,0.608541 0.02646,1.508125 -0.15875,2.54 0,0 -0.264584,1.481666 -0.926042,2.989791 -0.846667,1.905 -4.233334,7.858125 -9.101668,15.71625 2.090209,1.905 4.497917,3.836459 7.249584,5.741459 6.693959,4.656666 13.202709,7.46125 18.494376,9.181041 v -77.099584 0 77.099584 c 5.291667,-1.74625 12.197291,-4.524375 18.917708,-9.181041 2.725208,-1.905 5.132917,-3.862917 7.249583,-5.741459 -4.868333,-7.858125 -8.255,-13.81125 -9.101666,-15.71625 -0.687917,-1.508125 -0.926042,-2.989791 -0.926042,-2.989791 -0.185208,-1.031875 -0.185208,-1.931459 -0.15875,-2.54 0.15875,-0.449792 0.3175,-0.899584 0.502708,-1.349375 0.05292,0.132291 0.07937,0.185208 0.07937,0.185208 0,0.02646 0.02646,0.05292 0.05292,0.07937 0,0 0.05292,0.132292 0.132292,0.264583 0.105833,0.211667 2.037291,4.101042 4.021666,7.355417 3.624792,5.953125 7.249584,9.445625 9.2075,9.68375 0.343959,0.05292 1.217084,0.15875 1.534584,-0.343958 0.238125,-0.343959 0.105833,-0.873125 0,-1.137709 -1.613959,-2.037291 -4.392084,-6.217708 -4.392084,-11.721041 0,-0.9525 0.07937,-1.878542 0.211667,-2.69875 0.9525,2.143125 2.619375,5.053541 5.476875,7.672916 0.926042,0.846667 1.878542,1.561042 2.751667,2.143125 3.862916,-6.217708 11.006666,-19.446875 9.286875,-35.692291 z"
           id="path1739"
           style="stroke-width:0.26458332"
           sodipodi:nodetypes="ccccccccccccccccccscccccccccccccccccccsccccccccccccccccccccccccccccccsccccc" />
      </g>
    </g>
  </g>
</svg>
