<?xml version="1.0" encoding="UTF-8" standalone="no"?>
<!-- Created with Inkscape (http://www.inkscape.org/) -->

<svg
   xmlns:dc="http://purl.org/dc/elements/1.1/"
   xmlns:cc="http://creativecommons.org/ns#"
   xmlns:rdf="http://www.w3.org/1999/02/22-rdf-syntax-ns#"
   xmlns:svg="http://www.w3.org/2000/svg"
   xmlns="http://www.w3.org/2000/svg"
   xmlns:sodipodi="http://sodipodi.sourceforge.net/DTD/sodipodi-0.dtd"
   xmlns:inkscape="http://www.inkscape.org/namespaces/inkscape"
   width="40"
   height="40"
   viewBox="0 0 31.75 31.75"
   version="1.1"
   id="svg4949"
   inkscape:version="0.92.3 (2405546, 2018-03-11)"
   sodipodi:docname="baxi.svg">
  <defs
     id="defs4943" />
  <sodipodi:namedview
     id="base"
     pagecolor="#ffffff"
     bordercolor="#666666"
     borderopacity="1.0"
     inkscape:pageopacity="0.0"
     inkscape:pageshadow="2"
     inkscape:zoom="1.979899"
     inkscape:cx="252.09374"
     inkscape:cy="-173.206"
     inkscape:document-units="mm"
     inkscape:current-layer="layer1"
     showgrid="false"
     fit-margin-top="0"
     fit-margin-left="0"
     fit-margin-right="0"
     fit-margin-bottom="0"
     units="px"
     inkscape:window-width="2256"
     inkscape:window-height="1410"
     inkscape:window-x="-11"
     inkscape:window-y="-11"
     inkscape:window-maximized="1" />
  <metadata
     id="metadata4946">
    <rdf:RDF>
      <cc:Work
         rdf:about="">
        <dc:format>image/svg+xml</dc:format>
        <dc:type
           rdf:resource="http://purl.org/dc/dcmitype/StillImage" />
        <dc:title></dc:title>
      </cc:Work>
    </rdf:RDF>
  </metadata>
  <g
     inkscape:label="Layer 1"
     inkscape:groupmode="layer"
     id="layer1"
     transform="translate(-2.1941605,-5.0133863)">
    <path
       inkscape:connector-curvature="0"
       class="st0"
       d="m 26.279893,19.373273 c 1.228808,-1.423619 2.450122,-2.854729 3.678926,-4.278344 -1.35618,0 -2.70487,0 -4.061053,0 0.05994,0.08992 0.142362,0.232274 0.194808,0.427083 0.02248,0.07493 0.05245,0.209798 0.03747,0.374637 -0.02248,0.254752 -0.142362,0.434578 -0.202305,0.516997 -0.442071,0.479536 -0.876647,0.959069 -1.31872,1.438603 -0.569446,-0.921604 -1.138892,-1.84321 -1.700848,-2.75732 -1.116414,0 -2.23283,0 -3.349245,0 1.123909,1.633411 2.247816,3.274318 3.371725,4.907733 -0.884143,1.004023 -1.768283,2.000555 -2.659916,3.004581 -1.033997,-2.63744 -2.075485,-5.274878 -3.109481,-7.912314 -1.326211,0 -2.652424,0 -3.978634,0 0.149853,0.202301 0.292215,0.472039 0.314695,0.794227 0.01498,0.254752 -0.05994,0.449563 -0.08242,0.509506 -0.179826,0.49452 -1.266267,3.821288 -2.764813,8.421818 1.108922,0 2.217847,0 3.326769,0 -0.112393,-0.172333 -0.374637,-0.606909 -0.367144,-1.213821 0,-0.44207 0.142362,-0.771748 0.232274,-0.951574 1.258778,0 2.517555,0 3.776333,0 0.104899,0.367142 0.232274,0.756765 0.382127,1.168866 0.134869,0.35965 0.277231,0.696821 0.419594,1.004022 1.506038,0 3.019567,0 4.525603,0 -0.07493,-0.08992 -0.209796,-0.284721 -0.269738,-0.569446 -0.04495,-0.224782 -0.01498,-0.412101 0.0075,-0.516999 0.606912,-0.764258 1.213821,-1.536006 1.828226,-2.300264 0.726792,1.131399 1.446093,2.255307 2.172888,3.386709 1.116414,0 2.225339,0 3.341754,0 C 28.774984,22.99975 27.5237,21.18651 26.279906,19.373273 Z M 14.426408,20.76692 c 0.367144,-1.153882 0.741778,-2.307759 1.108922,-3.461638 0.404607,1.153879 0.809214,2.307756 1.21382,3.461638 -0.77175,0 -1.543498,0 -2.322742,0 z"
       id="path4915"
       style="stroke-width:0.07492722" />
    <path
       inkscape:connector-curvature="0"
       class="st0"
       d="m 30.400891,15.087436 c 1.101429,0 2.202858,0 3.296797,0 0.0075,3.236856 0.0075,6.473711 0.01498,9.710567 -0.899127,0 -1.805747,0 -2.704873,0 0.01498,-2.240323 0.02248,-4.503126 0,-6.788406 -0.0075,-0.651868 -0.01498,-1.303734 -0.02248,-1.955602 -0.01498,-0.104896 -0.04495,-0.232272 -0.104896,-0.367141 -0.127365,-0.314694 -0.352147,-0.509506 -0.479523,-0.599418 z"
       id="path4917"
       style="stroke-width:0.07492722" />
    <path
       inkscape:connector-curvature="0"
       class="st0"
       d="M 10.395324,21.10409 C 10.163049,20.557121 9.7809189,20.234934 9.6085869,20.092575 9.3613286,19.890269 9.1290537,19.762894 8.9567216,19.680475 c 0.2247817,-0.05994 0.5994163,-0.194812 0.9216033,-0.517 0.7193021,-0.726794 0.7492711,-1.948106 0.3221871,-2.787293 -0.112391,-0.217288 -0.4420701,-0.786734 -1.1089215,-1.093936 -0.2772311,-0.127378 -0.5319856,-0.172335 -0.7043177,-0.19481 -1.9930621,0.0075 -3.9786339,0.0075 -5.9716991,0.01498 0.104899,0.08242 0.3146943,0.262246 0.4495634,0.561954 0.1123923,0.239768 0.1348691,0.457056 0.1348691,0.584432 0.02997,2.72735 0.05245,5.454702 0.082419,8.182052 -0.05245,0.1049 -0.1048962,0.209796 -0.1573457,0.322188 -0.0075,0.0075 -0.022485,0.02248 -0.029973,0.02997 2.525048,0.01498 4.2184051,0.02248 5.0875589,0.01498 0.2322749,0 0.4645497,0 0.6893314,0.0075 0.1423622,-0.04495 0.3221876,-0.11239 0.5319828,-0.217289 0.02997,-0.01498 0.3746373,-0.187319 0.6218963,-0.427083 0.5919251,-0.576943 0.6893311,-1.296244 0.7267941,-1.610938 0.04495,-0.277231 0.112392,-0.831693 -0.157346,-1.446096 z m -2.4501213,1.476067 c -0.134869,0.194811 -0.2997079,0.307201 -0.3971138,0.35965 -0.674345,0 -1.34869,0 -2.023035,0 0,-0.726795 0,-1.453586 0,-2.18038 0.5919256,0.0075 1.1913414,0.01498 1.7832669,0.02248 0.1423622,0.04495 0.404607,0.149852 0.5994187,0.397113 0.3146944,0.404607 0.3072012,0.996532 0.037463,1.40114 z M 5.5100675,16.863209 c 0.6144051,0 1.2288074,0 1.8432096,0 0.1423622,0.05245 0.4121003,0.172335 0.5694489,0.449563 0.2397652,0.442073 0.082419,1.101432 -0.4495634,1.558488 -0.6593614,0 -1.3112268,0 -1.9705883,0 0.0075,-0.666852 0.0075,-1.333706 0.0075,-2.008051 z"
       id="path4919"
       style="stroke-width:0.07492722" />
  </g>
</svg>
