<?xml version="1.0" encoding="utf-8"?>
<!-- Generator: Adobe Illustrator 22.1.0, SVG Export Plug-In . SVG Version: 6.00 Build 0)  -->
<svg version="1.1" xmlns="http://www.w3.org/2000/svg" xmlns:xlink="http://www.w3.org/1999/xlink" x="0px" y="0px"
	 viewBox="0 0 510.2 510.2" style="enable-background:new 0 0 510.2 510.2;" xml:space="preserve">
<style type="text/css">
	.st0{fill:#010101;}
	.st1{fill:#010101;stroke:#010101;stroke-miterlimit:10;}
	.st2{fill:#030303;stroke:#010101;stroke-miterlimit:10;}
</style>
<g id="Layer_1">
</g>
<g id="Layer_2">
	<g>
		<path class="st0" d="M90.7,242 M67.7,253.6c-2.8,7.2-8.2,11.8-12.9,10.6c-5.4-1.3-7.8-9.7-5.5-18.7c1.9-7.3,8.7-15.3,14-13.9
			c4.7,1.3,6.1,9.3,6.3,10.4c7,0,14.1-0.1,21.1-0.1c0-2.2-0.3-12.4-7.6-18.9c-3.2-2.9-7.2-4.5-8.1-4.9c-0.8-0.3-4.2-1.7-9.1-2.1
			c-2.3-0.2-9.5-0.6-17.9,3c-0.7,0.3-1.2,0.6-1.5,0.7c0,0-8.8,4.3-14.1,12.5c-7.3,11.1-7,32.4,5.7,41.8c5,3.7,10.4,4.4,13.4,4.7
			c18.9,2.2,32.2-13.2,34-16c1.2-1.9,3.9-8.6,3.9-8.7c0,0,0,0,0,0c0.1-0.3,0.1-0.3,0.1-0.3c0-0.1-5.4-0.1-22.2,0 M69.6,242.1"/>
		<path class="st0" d="M157.4,242.1c-0.7-8.4-5.3-19.3-15-23.8c-3.5-1.6-6.6-1.9-9.1-2.1c-2.3-0.2-9.5-0.6-17.9,3
			c-0.7,0.3-1.2,0.6-1.5,0.7c0,0-8.8,4.3-14.1,12.5c-7.3,11.1-7,32.4,5.7,41.8c5,3.7,10.1,4.3,13.4,4.7c12.9,1.5,27.6-4.7,33.1-15.8
			c0.8-1.7,1.3-3.1,1.6-4.1c-7.1,0-14.3,0.1-21.4,0.1c-2.9,3.8-6.6,5.9-9.9,5.1c-4.1-1-6.5-6.2-6.4-12.7h22.4
			c6.2-0.1,12.3-0.1,18.5-0.2C157.1,249.5,157.7,246.2,157.4,242.1z M137.8,241.4c-6.8,0-13.5,0-20.3,0c0.1-0.6,0.6-5.7,5.1-8.6
			c1.1-0.7,4.6-2.7,8.6-1.5c0.8,0.2,3.8,1.2,5.6,4.3C138.1,238.1,137.9,240.6,137.8,241.4z"/>
		<path class="st1" d="M156,278.8c7.3,0,14.6,0,21.8,0c2.7-12.2,5.4-24.3,8.1-36.5c0.3-0.6,0.6-1.3,1.2-2c0.1-0.2,1.4-1.9,3.4-2.9
			c0.8-0.4,5-2.6,8.2-0.2c2.1,1.6,3,4.5,2.5,7.5c-2.3,11.4-4.6,22.8-6.8,34.1c6.9,0,13.9,0,20.8,0c2.6-13.2,5.2-26.5,7.8-39.7
			c0.1-0.7,0.3-1.6,0.3-2.8c0.1-1.4,0.2-7.6-2.8-11.9c-4.1-5.7-12-5.7-14.5-5.7c-9.9,0-16.6,6.7-18.2,8.5c0.5-2.1,0.9-4.3,1.4-6.4
			c-7.2,0-14.4,0-21.6,0C163.8,240.1,159.9,259.5,156,278.8z"/>
		<path class="st1" d="M237.3,201.7c6.7,0,13.4,0,20.2,0c-1,5.7-2.1,11.5-3.1,17.2c5,0,10,0,15,0c-1.1,5.1-2.3,10.2-3.4,15.3
			c-4.9,0-9.7,0-14.6,0c-1.3,7.1-2.6,14.3-4,21.4c0,0.2-0.1,0.4-0.1,0.7c0,0.2-0.2,1-0.2,1.8c0,1.2,0,1.9,0.3,2.7
			c0.5,1,1.2,1.5,1.5,1.7c0.5,0.3,1,0.5,1.3,0.6c3.1,0,6.2,0,9.3,0c-0.9,5.2-1.7,10.3-2.6,15.5c-11.5,0.1-15.8,0.2-16.9,0.3
			c-0.2,0-0.8,0.1-1.8,0.1c-1.3,0-2.2-0.1-2.5-0.1c-0.9-0.1-1.9-0.2-3-0.6c-1.5-0.5-2.5-1.3-3.3-1.9c-0.8-0.6-2.8-2.2-3.9-4.7
			c-0.4-0.9-1.1-2.7-0.5-8.4c0.3-2.7,0.6-4,1.3-8c0.2-0.8,1.2-6.3,2.1-12.5c0.5-3.6,0-0.6,1-8.7c0.4-3.5,0.6-5.1-0.1-7.1
			c-0.7-1.9-2.1-3.5-2.7-4.2c-1-1.2-2-2-2.8-2.6c0-0.4-0.1-0.7-0.1-1.1c3.5,0,7.1-0.1,10.6-0.1C235.4,213.2,236.4,207.5,237.3,201.7
			z"/>
		<path class="st2" d="M274.7,219.2c-3.7,19.8-7.4,39.6-11.1,59.5c7.2,0,14.3,0,21.5,0c2.2-10.4,4.5-20.8,6.7-31.1
			c0.2-0.9,0.9-2.8,2.5-4.6c1.9-2,4.1-2.7,5-2.9c1-0.1,2-0.3,3-0.4c3.8-0.4,7.4-0.4,10.6-0.3c1.4-6.5,2.8-13,4.1-19.5
			c-3,0-6-0.1-9-0.1c-0.9,0-1.9,0.1-3,0.4c-5.9,1.5-9.1,6.6-10.1,8.5c0.5-3,0.9-6.1,1.4-9.1C289.1,219.4,281.9,219.3,274.7,219.2z"
			/>
		<g>
			<path class="st2" d="M334.4,278.8c-7.5,0-15.1-0.1-22.6-0.1c3.9-19.9,7.8-39.8,11.8-59.7c7,0,13.9,0.1,20.9,0.1
				C341,239,337.7,258.9,334.4,278.8z"/>
			
				<ellipse transform="matrix(0.7071 -0.7071 0.7071 0.7071 -44.0135 298.367)" class="st2" cx="338.2" cy="202.3" rx="13.4" ry="10.5"/>
		</g>
		<path class="st0" d="M408.6,241.9 M385.6,253.5c-2.8,7.2-8.2,11.8-12.9,10.6c-5.4-1.3-7.8-9.7-5.5-18.7c1.9-7.3,8.7-15.3,14-13.9
			c4.7,1.3,6.1,9.3,6.3,10.4c7,0,14.1-0.1,21.1-0.1c0-2.2-0.3-12.4-7.6-18.9c-3.2-2.9-7.2-4.5-8.1-4.9c-0.8-0.3-4.2-1.7-9.1-2.1
			c-2.3-0.2-9.5-0.6-17.9,3c-0.7,0.3-1.2,0.6-1.5,0.7c0,0-8.8,4.3-14.1,12.5c-7.3,11.1-7,32.4,5.7,41.8c5,3.7,10.4,4.4,13.4,4.7
			c18.9,2.2,32.2-13.2,34-16c1.2-1.9,3.9-8.6,3.9-8.7c0,0,0,0,0,0c0.1-0.3,0.1-0.3,0.1-0.3c0-0.1-5.4-0.1-22.2,0 M387.5,242"/>
		<path class="st2" d="M473.4,260.8c1.6-6.2,4.5-20.5,8.5-40.5c-7.5,0-14.9,0-22.4,0c-0.3,5.6-0.7,7.1-1,7.1c-0.1,0-0.2-0.3-0.4-0.7
			c0,0-0.5-1.1-2.3-2.8c-0.9-0.9-6-4.4-13.6-4.6c-10-0.3-17.4,5.5-18.9,6.8c-9.3,7.6-10.9,18.3-11.9,24.4c-0.9,5.8-0.3,9.6,0.1,11.6
			c0.4,2.1,1.3,6,4.2,9.9c1.2,1.6,2.9,3.8,6,5.4c2.9,1.5,5.5,1.5,8.5,1.5c4.8,0,8.5-1.1,10.5-1.9c4.2-1.6,7.2-3.8,9-5.4
			c0,2.2,0,4.4,0,6.6c7.5,0,14.9,0.1,22.4,0.1c-0.2-1.8-0.4-4.4-0.2-7.6C472.1,265.7,473.1,262.1,473.4,260.8z M454.5,251.3
			c-2.2,8.3-8.4,13.9-13.8,12.4s-8-9.3-5.9-17.6c2.2-8.3,8.4-13.9,13.8-12.4C454,235.1,456.7,243,454.5,251.3z"/>
	</g>
</g>
</svg>
