<?xml version="1.0" encoding="UTF-8" standalone="no"?>
<!-- Created with Inkscape (http://www.inkscape.org/) -->

<svg
   xmlns:dc="http://purl.org/dc/elements/1.1/"
   xmlns:cc="http://creativecommons.org/ns#"
   xmlns:rdf="http://www.w3.org/1999/02/22-rdf-syntax-ns#"
   xmlns:svg="http://www.w3.org/2000/svg"
   xmlns="http://www.w3.org/2000/svg"
   xmlns:sodipodi="http://sodipodi.sourceforge.net/DTD/sodipodi-0.dtd"
   xmlns:inkscape="http://www.inkscape.org/namespaces/inkscape"
   width="40"
   height="40"
   viewBox="0 0 31.75 31.75"
   version="1.1"
   id="svg400"
   sodipodi:docname="dell_2.svg"
   inkscape:version="0.92.3 (2405546, 2018-03-11)">
  <defs
     id="defs394" />
  <sodipodi:namedview
     id="base"
     pagecolor="#ffffff"
     bordercolor="#666666"
     borderopacity="1.0"
     inkscape:pageopacity="0.0"
     inkscape:pageshadow="2"
     inkscape:zoom="0.98994949"
     inkscape:cx="688.206"
     inkscape:cy="-39.209273"
     inkscape:document-units="mm"
     inkscape:current-layer="layer1"
     showgrid="false"
     inkscape:window-width="2256"
     inkscape:window-height="1410"
     inkscape:window-x="-11"
     inkscape:window-y="-11"
     inkscape:window-maximized="1"
     fit-margin-top="0"
     fit-margin-left="0"
     fit-margin-right="0"
     fit-margin-bottom="0"
     units="px" />
  <metadata
     id="metadata397">
    <rdf:RDF>
      <cc:Work
         rdf:about="">
        <dc:format>image/svg+xml</dc:format>
        <dc:type
           rdf:resource="http://purl.org/dc/dcmitype/StillImage" />
        <dc:title></dc:title>
      </cc:Work>
    </rdf:RDF>
  </metadata>
  <g
     inkscape:label="Layer 1"
     inkscape:groupmode="layer"
     id="layer1"
     transform="translate(-49.019118,-157.67741)">
    <path
       inkscape:connector-curvature="0"
       class="st7"
       d="m 49.832409,175.46622 c 2.340135,0 4.680269,0 7.020404,0 0.01419,0.72331 0.02128,1.43953 0.03545,2.16285 -0.283652,-0.42547 -0.567304,-0.85096 -0.850958,-1.27644 -1.006967,0 -2.006843,0 -3.013809,0 0.01418,0.85097 0.02128,1.70192 0.03545,2.55287 0.815503,-0.007 1.631004,-0.0142 2.446505,-0.0142 0.03545,-0.0213 0.09218,-0.0638 0.15601,-0.12765 0,0 0.234012,-0.21983 0.496392,-1.04952 0.05673,-0.007 0.120552,-0.0142 0.177282,-0.0142 0,0.11346 -0.01419,3.04217 -0.01419,3.15563 0,0 0,0.0142 0,0.0142 -0.06382,-0.0142 -0.127643,-0.0213 -0.198557,-0.0355 -0.01418,-0.0709 -0.02836,-0.14183 -0.05673,-0.21274 -0.127644,-0.41129 -0.354567,-0.70913 -0.553123,-0.90768 -0.836776,-0.007 -1.66646,-0.0142 -2.496144,-0.0142 0.01418,0.94315 0.03545,1.89338 0.05673,2.83652 1.035333,0.007 2.070665,0.0142 3.105998,0.0142 0.02128,-0.0284 0.07091,-0.0922 0.127643,-0.17728 0.411297,-0.62404 0.616944,-1.28352 0.624037,-1.29061 0.05673,-0.007 0.120551,-0.0142 0.177282,-0.0142 0,0.80131 0,1.60973 0,2.41105 -2.48196,-0.0567 -4.332794,-0.0567 -5.091565,-0.0355 -0.53894,0.0142 -1.063698,0.0355 -1.063698,0.0355 -0.404205,0.0142 -0.772954,0.0355 -1.099155,0.0567 -0.02836,-0.0567 -0.04963,-0.14183 -0.01418,-0.21274 0.04254,-0.0851 0.148917,-0.10636 0.248195,-0.14182 0,0 0.354567,-0.10638 0.69495,-0.34038 0.07801,-0.0496 0.184374,-0.14184 0.297835,-0.28366 0.0071,-0.0851 0.01418,-0.17729 0.01418,-0.26946 0.120552,-1.90048 0.134736,-3.7655 0.05673,-5.58797 -0.02128,-0.0709 -0.04963,-0.1702 -0.106369,-0.28365 -0.03545,-0.0709 -0.09928,-0.19856 -0.212739,-0.29784 -0.09928,-0.0922 -0.184375,-0.12055 -0.439663,-0.21273 -0.113461,-0.0425 -0.290743,-0.10638 -0.510575,-0.19857 -0.02836,-0.0709 -0.03545,-0.15601 -0.04963,-0.24109 z"
       id="path325"
       style="stroke-width:0.07091317" />
    <path
       inkscape:connector-curvature="0"
       class="st8"
       d="m 77.325448,175.45203 c -0.333291,-0.0639 -0.808409,-0.13473 -1.382807,-0.14182 -0.808411,-0.007 -1.886289,-0.0213 -2.992535,0.62404 -1.01406,0.58148 -1.545908,1.41117 -1.737375,1.75865 -0.170191,0.29782 -0.531847,0.95023 -0.581487,1.87919 -0.02129,0.34039 -0.03545,1.33317 0.567307,2.34014 0.148916,0.2482 0.496391,0.8155 1.191341,1.24097 0.609852,0.37585 1.148794,0.44676 1.787013,0.53186 1.297709,0.17019 2.269219,-0.11346 2.538689,-0.19857 0.319111,-0.0993 0.58149,-0.21273 0.765863,-0.29782 0,-0.0638 0.03545,-2.08486 0.03545,-2.14158 0,0 0,-0.0213 0,-0.0213 -0.06382,0.0284 -0.127644,0.0567 -0.198556,0.0851 -0.02836,0.078 -0.078,0.2411 -0.141828,0.43965 -0.170191,0.53894 -0.21274,0.68786 -0.340383,0.86515 -0.09218,0.13473 -0.1631,0.2482 -0.297836,0.34037 -0.09927,0.0639 -0.205647,0.10638 -0.553123,0.14183 -0.326199,0.0355 -0.489299,0.0567 -0.70913,0.0355 -0.546031,-0.0496 -0.936054,-0.26946 -1.049514,-0.34037 -0.482211,-0.29075 -0.723316,-0.66659 -0.865142,-0.90769 -0.37584,-0.60986 -0.453843,-1.18426 -0.496392,-1.56009 -0.10637,-0.91478 0.09218,-1.60974 0.212739,-1.99975 0.127645,-0.43966 0.262377,-0.86515 0.638219,-1.29063 0.127645,-0.14181 0.368749,-0.41129 0.780044,-0.60276 0.390023,-0.17728 0.730406,-0.19146 0.921872,-0.19855 0.255288,-0.007 0.496392,-0.007 0.765864,0.12765 0.191464,0.0922 0.312015,0.21983 0.368747,0.28364 0.03545,0.0425 0.21274,0.22692 0.340384,0.53185 0.04254,0.0993 0.04964,0.15601 0.156007,0.60276 0.01419,0.0213 0.0851,0.12055 0.141828,0.10638 0.06382,-0.0142 0.10637,-0.14184 0.08509,-0.31912 0.02129,-0.63821 0.03545,-1.27643 0.04963,-1.91465 z"
       id="path327"
       style="stroke-width:0.07091317" />
    <path
       inkscape:connector-curvature="0"
       class="st7"
       d="m 78.140951,174.21105 c -0.09218,0.0709 -0.177284,0.14183 -0.269471,0.21275 0,0.0425 -0.0071,0.17018 0.06382,0.21274 0.03545,0.0213 0.08509,0.0142 0.269468,-0.0638 0.170193,-0.078 0.191468,-0.0993 0.269472,-0.12765 0.05673,-0.0213 0.290743,-0.12056 0.510575,-0.0142 0.191464,0.0851 0.262379,0.26949 0.283651,0.31912 0.078,0.19146 0.04254,0.36166 0.01418,0.48221 -0.078,0.35457 -0.312018,0.58149 -0.425479,0.67368 -0.340382,0.33328 -0.673674,0.65948 -1.006966,0.99278 0,0.11347 0,0.22692 0,0.34039 0.801318,0 1.609729,0 2.411047,0 0.0071,-0.39004 0.01418,-0.78005 0.01418,-1.17008 -0.127644,0.17019 -0.248199,0.34039 -0.368751,0.51058 -0.368747,0 -0.744586,0 -1.120426,0 0.078,-0.0638 0.212739,-0.17019 0.368748,-0.29782 0.581486,-0.46095 0.70913,-0.53896 0.850958,-0.76588 0.03545,-0.0638 0.163099,-0.26946 0.21274,-0.5673 0.02836,-0.16311 0.05673,-0.34748 -0.03545,-0.53184 -0.07092,-0.14184 -0.170192,-0.21984 -0.248196,-0.28366 -0.262379,-0.19855 -0.546034,-0.23402 -0.652402,-0.24821 -0.567306,-0.0709 -1.014059,0.22693 -1.141702,0.32621 z"
       id="path329"
       style="stroke-width:0.07091317" />
    <path
       inkscape:connector-curvature="0"
       class="st9"
       d="m 78.764986,181.73494 c 0.170191,0 0.319111,0.0639 0.439662,0.18437 0.120552,0.12056 0.184373,0.26948 0.184373,0.44676 0,0.1702 -0.06382,0.31911 -0.184373,0.44675 -0.120551,0.12764 -0.269471,0.18437 -0.446754,0.18437 -0.170191,0 -0.319108,-0.0639 -0.446752,-0.18437 -0.120552,-0.12055 -0.184374,-0.26946 -0.184374,-0.44675 0,-0.17019 0.06382,-0.31911 0.184374,-0.44676 0.127644,-0.12055 0.276561,-0.18437 0.453844,-0.18437 z m 0,1.15589 c 0.141827,0 0.269472,-0.0496 0.368748,-0.15601 0.10637,-0.10637 0.156011,-0.22692 0.156011,-0.36875 0,-0.14182 -0.04964,-0.26946 -0.156011,-0.36874 -0.09927,-0.0993 -0.226921,-0.15601 -0.368748,-0.15601 -0.141827,0 -0.26947,0.0496 -0.368747,0.15601 -0.09928,0.0993 -0.156012,0.22692 -0.156012,0.36874 0,0.14183 0.04964,0.26948 0.156012,0.36875 0.09928,0.10637 0.21983,0.15601 0.368747,0.15601 z m 0.290744,-0.17728 h -0.134735 c -0.08511,-0.15602 -0.141825,-0.24112 -0.163101,-0.25529 -0.02836,-0.0213 -0.05673,-0.0284 -0.09927,-0.0284 h -0.06382 v 0.29075 h -0.106375 v -0.67368 h 0.234011 c 0.07091,0 0.120552,0.007 0.1631,0.0142 0.03545,0.007 0.07092,0.0284 0.09219,0.0637 0.02129,0.0355 0.03545,0.0639 0.03545,0.10638 0,0.0496 -0.01418,0.0851 -0.04964,0.12764 -0.03545,0.0355 -0.078,0.0567 -0.141824,0.0639 v 0 c 0.04254,0.007 0.09219,0.0639 0.156008,0.17019 z m -0.460936,-0.38293 h 0.134737 c 0.06382,0 0.106367,-0.007 0.127643,-0.0285 0.02129,-0.0213 0.03545,-0.0425 0.03545,-0.078 0,-0.0284 -0.01418,-0.0567 -0.03545,-0.0709 -0.02129,-0.0213 -0.07091,-0.0284 -0.134736,-0.0284 h -0.127644 z"
       id="path331"
       style="stroke-width:0.07091317" />
    <path
       inkscape:connector-curvature="0"
       class="st9"
       d="m 79.495392,162.63803 h -0.198556 v 0.57439 H 79.15501 v -0.57439 h -0.205649 v -0.12056 h 0.53894 v 0.12056 z"
       id="path335"
       style="stroke-width:0.07091317" />
    <path
       inkscape:connector-curvature="0"
       class="st9"
       d="m 80.098155,162.85076 0.01418,-0.13474 h -0.0071 l -0.04255,0.11347 -0.148919,0.25529 h -0.04254 l -0.156008,-0.25529 -0.04254,-0.10637 h -0.0071 l 0.02129,0.13474 v 0.36165 h -0.127644 v -0.69495 h 0.120554 l 0.184373,0.31911 0.03545,0.078 h 0.0071 l 0.02836,-0.078 0.17728,-0.31202 h 0.120555 v 0.69495 H 80.09819 Z"
       id="path337"
       style="stroke-width:0.07091317" />
    <path
       inkscape:connector-curvature="0"
       class="st7"
       d="m 63.532835,183.50068 c 0.226924,0 0.453844,0 0.680767,0 0.950238,-2.01394 1.900473,-4.03496 2.850709,-6.0489 0.141828,1.73029 0.283652,3.46766 0.425479,5.19795 -0.01418,0.0355 -0.04254,0.0993 -0.09218,0.15601 -0.04963,0.0639 -0.120552,0.12055 -0.234012,0.17728 -0.163103,0.078 -0.524759,0.19856 -0.992785,0.31201 0,0.0709 0.0071,0.14183 0.0071,0.21274 1.581365,0.007 3.169818,0.007 4.751183,0.0142 -0.0071,-0.0567 -0.01418,-0.12056 -0.01418,-0.17729 -0.269468,-0.0567 -0.631127,-0.1631 -1.006966,-0.39002 -0.163099,-0.0993 -0.304927,-0.19856 -0.425479,-0.29784 -0.212739,-2.09194 -0.43257,-4.18387 -0.645309,-6.27581 0.361658,-0.20566 0.751678,-0.40421 1.162976,-0.59567 0.05673,-0.0284 0.120552,-0.0567 0.177284,-0.078 -0.01418,-0.0567 -0.02129,-0.12054 -0.03545,-0.17728 -1.070788,-0.007 -2.134485,-0.0142 -3.205274,-0.0213 -0.865141,1.68773 -1.730284,3.38256 -2.595422,5.07029 -0.822594,-1.70192 -1.645187,-3.40383 -2.46778,-5.10575 -1.120429,-0.007 -2.240856,-0.0142 -3.361285,-0.0213 0.0071,0.0709 0.01418,0.14182 0.01418,0.21274 0.361657,0.0922 0.638219,0.19855 0.836775,0.28365 0.141826,0.0639 0.276562,0.12764 0.390023,0.26948 0.08509,0.10636 0.120551,0.21273 0.141826,0.28364 -0.312017,3.2762 -0.624035,5.66597 -0.780045,6.06307 -0.10637,0.26948 -0.283652,0.40421 -0.283652,0.41131 -0.134736,0.10637 -0.269471,0.14182 -0.510576,0.21274 -0.134734,0.0355 -0.304927,0.078 -0.510575,0.10636 0.02128,0.0638 0.04964,0.12765 0.07091,0.19856 1.233889,0 2.460688,0.007 3.694577,0.007 0,-0.078 0.0071,-0.1631 0.0071,-0.24111 -0.475118,-0.11345 -0.829684,-0.2411 -0.992784,-0.31911 -0.113461,-0.0567 -0.177283,-0.11345 -0.226923,-0.17728 -0.04964,-0.0638 -0.07799,-0.12055 -0.0851,-0.156 0.156011,-1.7303 0.319111,-3.46057 0.482211,-5.19085 0.907688,2.01393 1.836651,4.04915 2.772705,6.08435 z"
       id="path341"
       style="stroke-width:0.07091317" />
    <path
       inkscape:connector-curvature="0"
       class="st7"
       d="m 77.573646,168.42454 c 0,-1.97847 0,-3.95696 0,-5.93544 -1.049516,0 -2.099032,0 -3.141455,0 v 5.38232 0.62403 2.76562 c 1.928837,0 3.857676,0 5.793607,0 0,-0.94314 0,-1.89339 0,-2.83653 -0.886413,0 -1.772832,0 -2.652152,0 z"
       id="path343"
       style="stroke-width:0.07091317" />
    <path
       inkscape:connector-curvature="0"
       class="st7"
       d="m 71.212731,168.49545 v -6.00635 c -1.049514,0 -2.099028,0 -3.141452,0 0,1.00697 0,2.00685 0,3.01381 -1.411174,0.88642 -2.829436,1.77284 -4.240609,2.65925 -0.234015,-0.14892 -0.475118,-0.29784 -0.709131,-0.44675 1.39699,-0.8935 2.79398,-1.77992 4.19806,-2.67343 -0.631127,-0.41839 -1.269346,-0.83677 -1.900472,-1.25516 -1.425357,0.90769 -2.850711,1.81537 -4.276067,2.71598 -0.234012,-0.16311 -0.475117,-0.3333 -0.709131,-0.4964 1.439537,-0.90769 2.886166,-1.81538 4.325703,-2.71598 -0.65949,-0.43966 -1.318984,-0.87222 -1.971384,-1.31189 -1.588456,1.01406 -3.184002,2.02812 -4.772458,3.03509 -0.134735,-0.29075 -0.37584,-0.70205 -0.765863,-1.11333 -0.120552,-0.12765 -0.723314,-0.73041 -1.843742,-1.11335 -0.553123,-0.18437 -0.992784,-0.2411 -2.574148,-0.26947 -0.744589,-0.0142 -1.709009,-0.0283 -2.85071,-0.0142 -0.02128,2.88616 -0.04254,5.77233 -0.05673,8.66559 1.552999,0.0142 3.105997,0.0355 4.666087,0.0567 0.07801,0 0.191466,-0.007 0.319109,-0.0142 1.01406,-0.10637 1.7161,-0.6524 1.957205,-0.85096 0.730406,-0.61695 1.021149,-1.34736 1.13461,-1.68065 1.609729,0.99988 3.212367,1.99975 4.822097,2.99963 1.758645,-1.12042 3.517294,-2.24085 5.268849,-3.35418 0.0071,0.9786 0.01418,1.95719 0.02129,2.92871 1.921748,0 3.843493,0 5.765241,0 v -2.76561 h -2.66634 z m -16.139838,-1.3828 c -0.02128,0.17019 -0.04964,0.43967 -0.226923,0.7233 -0.06382,0.10638 -0.226921,0.36876 -0.53894,0.52477 -0.219831,0.10637 -0.425479,0.12056 -0.843867,0.13473 -0.184374,0.007 -0.340383,0.007 -0.446752,0 0.0071,-1.08497 0.0071,-2.16994 0.01418,-3.25491 0.304926,-0.0213 0.553123,0 0.723315,0.0284 0.26947,0.0425 0.397114,0.0922 0.460935,0.12765 0.156009,0.078 0.255288,0.1631 0.326201,0.22692 0.198556,0.17728 0.304926,0.36165 0.340383,0.41839 0.03545,0.0567 0.134735,0.25528 0.184374,0.53184 0.0071,0.0425 0.04254,0.2553 0.0071,0.53895 z"
       id="path345"
       style="stroke-width:0.07091317" />
  </g>
</svg>
