<?xml version="1.0" encoding="UTF-8" standalone="no"?>
<!-- Created with Inkscape (http://www.inkscape.org/) -->
<svg



   xmlns:dc="http://purl.org/dc/elements/1.1/"
   xmlns:cc="http://creativecommons.org/ns#"
   xmlns:rdf="http://www.w3.org/1999/02/22-rdf-syntax-ns#"
   xmlns:svg="http://www.w3.org/2000/svg"
   xmlns="http://www.w3.org/2000/svg"
   xmlns:sodipodi="http://sodipodi.sourceforge.net/DTD/sodipodi-0.dtd"
   xmlns:inkscape="http://www.inkscape.org/namespaces/inkscape"
   width="40"
   height="40"
   viewBox="0 0 31.750001 31.750001"
   version="1.1"
   id="svg324"
   inkscape:version="0.92.3 (2405546, 2018-03-11)"
   sodipodi:docname="hsbc_2.svg">
  <defs
     id="defs318" />
  <sodipodi:namedview
     id="base"
     pagecolor="#ffffff"
     bordercolor="#666666"
     borderopacity="1.0"
     inkscape:pageopacity="0.0"
     inkscape:pageshadow="2"
     inkscape:zoom="0.98994949"
     inkscape:cx="225.72175"
     inkscape:cy="-172.42717"
     inkscape:document-units="mm"
     inkscape:current-layer="layer1"
     showgrid="false"
     fit-margin-top="0"
     fit-margin-left="0"
     fit-margin-right="0"
     fit-margin-bottom="0"
     units="px"
     inkscape:window-width="2256"
     inkscape:window-height="1410"
     inkscape:window-x="-11"
     inkscape:window-y="-11"
     inkscape:window-maximized="1" />
  <metadata
     id="metadata321">
    <rdf:RDF>
      <cc:Work
         rdf:about="">
        <dc:format>image/svg+xml</dc:format>
        <dc:type
           rdf:resource="http://purl.org/dc/dcmitype/StillImage" />
        <dc:title></dc:title>
      </cc:Work>
    </rdf:RDF>
  </metadata>
  <g
     inkscape:label="Layer 1"
     inkscape:groupmode="layer"
     id="layer1"
     transform="translate(-2.3566821,-27.187366)">
    <polygon
       transform="matrix(0.07172215,0,0,0.07172215,0.10122969,24.817695)"
       class="st6"
       points="200.3,201.9 147.7,148.3 253,148.3 358.4,148.3 305.7,201.9 253,255.5 "
       id="polygon287" />
    <polygon
       transform="matrix(0.07172215,0,0,0.07172215,0.10122969,24.817695)"
       class="st6"
       points="199.9,306.6 147.2,360.2 252.6,360.2 358,360.2 305.3,306.6 252.6,253 "
       id="polygon289" />
    <polygon
       transform="matrix(0.07172215,0,0,0.07172215,0.10122969,24.817695)"
       class="st6"
       points="92.5,307.4 146.1,360.1 146.1,254.7 146.1,149.4 92.5,202.1 38.9,254.7 "
       id="polygon291" />
    <polygon
       transform="matrix(0.07172215,0,0,0.07172215,0.10122969,24.817695)"
       class="st6"
       points="413.2,306.9 359.6,359.6 359.6,254.2 359.6,148.9 413.2,201.6 466.8,254.2 "
       id="polygon293" />
  </g>
</svg>
