<?xml version="1.0" encoding="UTF-8" standalone="no"?>
<!-- Created with Inkscape (http://www.inkscape.org/) -->

<svg
   xmlns:dc="http://purl.org/dc/elements/1.1/"
   xmlns:cc="http://creativecommons.org/ns#"
   xmlns:rdf="http://www.w3.org/1999/02/22-rdf-syntax-ns#"
   xmlns:svg="http://www.w3.org/2000/svg"
   xmlns="http://www.w3.org/2000/svg"
   xmlns:sodipodi="http://sodipodi.sourceforge.net/DTD/sodipodi-0.dtd"
   xmlns:inkscape="http://www.inkscape.org/namespaces/inkscape"
   width="40"
   height="40"
   viewBox="0 0 31.750002 31.750001"
   version="1.1"
   id="svg452"
   inkscape:version="0.92.3 (2405546, 2018-03-11)"
   sodipodi:docname="nhs_2.svg">
  <defs
     id="defs446" />
  <sodipodi:namedview
     id="base"
     pagecolor="#ffffff"
     bordercolor="#666666"
     borderopacity="1.0"
     inkscape:pageopacity="0.0"
     inkscape:pageshadow="2"
     inkscape:zoom="2.8"
     inkscape:cx="146.15565"
     inkscape:cy="-40.718408"
     inkscape:document-units="mm"
     inkscape:current-layer="layer1"
     showgrid="false"
     fit-margin-top="0"
     fit-margin-left="0"
     fit-margin-right="0"
     fit-margin-bottom="0"
     units="px"
     inkscape:window-width="2256"
     inkscape:window-height="1410"
     inkscape:window-x="-11"
     inkscape:window-y="-11"
     inkscape:window-maximized="1" />
  <metadata
     id="metadata449">
    <rdf:RDF>
      <cc:Work
         rdf:about="">
        <dc:format>image/svg+xml</dc:format>
        <dc:type
           rdf:resource="http://purl.org/dc/dcmitype/StillImage" />
        <dc:title></dc:title>
      </cc:Work>
    </rdf:RDF>
  </metadata>
  <g
     inkscape:label="Layer 1"
     inkscape:groupmode="layer"
     id="layer1"
     transform="translate(-2.1941552,-14.840772)">
    <path
       inkscape:connector-curvature="0"
       class="st1"
       d="m 2.7611195,23.403468 v 12.50948 H 33.49765 V 23.403468 Z M 9.553031,34.698792 C 8.876046,32.402934 8.1917054,30.114436 7.5147209,27.818578 c -0.4709442,2.28114 -0.9418912,4.56964 -1.4128354,6.85078 -0.84623,0 -1.6998189,0 -2.5460461,0 0.7137739,-3.333409 1.4349095,-6.659458 2.1486862,-9.992867 1.1111366,0.0073 2.2296294,0.02208 3.3407662,0.02944 0.6917025,2.303216 1.3760432,4.606432 2.0677442,6.90229 0.463587,-2.295858 0.927172,-4.584357 1.383402,-6.880214 0.860948,-0.0073 1.714534,-0.02208 2.575482,-0.02944 -0.713777,3.318692 -1.434913,6.644742 -2.14869,9.963434 -1.125851,0.01471 -2.244347,0.02944 -3.370199,0.03679 z m 10.191547,-0.02944 c 0.323776,-1.434911 0.64019,-2.869822 0.963965,-4.304733 -1.059627,0.0073 -2.111894,0.02208 -3.171521,0.02944 -0.309057,1.442268 -0.625474,2.884538 -0.934531,4.326808 -0.905097,-0.0073 -1.810196,-0.02208 -2.715293,-0.02944 0.713775,-3.340767 1.43491,-6.681534 2.148687,-10.022302 0.875663,0 1.751326,0 2.634348,0 -0.242829,1.280383 -0.493021,2.568124 -0.735851,3.848505 1.044909,-0.0073 2.097176,-0.02208 3.142088,-0.02944 0.264907,-1.265665 0.529813,-2.53133 0.79472,-3.789637 0.890381,-0.02208 1.773404,-0.03679 2.663782,-0.05887 -0.676982,3.340767 -1.361326,6.681534 -2.038307,10.022301 -0.927174,0.0073 -1.839632,0.0073 -2.752087,0.0073 z m 11.803065,-7.726441 c -0.485663,-0.191321 -0.912456,-0.286982 -1.214157,-0.338492 -0.721137,-0.125095 -1.081702,-0.176604 -1.49378,-0.139812 -0.632834,0.0515 -0.993402,0.235472 -1.14057,0.39736 -0.04415,0.0515 -0.220756,0.25019 -0.228115,0.537172 -0.0073,0.316416 0.183964,0.537171 0.257548,0.625474 0.191322,0.220755 0.404719,0.272265 0.735851,0.39736 0.02944,0.01471 0.404719,0.183963 1.162647,0.537172 0.9051,0.419435 1.037553,0.522454 1.162648,0.647549 0.29434,0.309058 0.419437,0.632833 0.478303,0.79472 0.169245,0.456228 0.15453,0.84623 0.139812,1.19208 -0.01471,0.367926 -0.03679,0.853588 -0.279625,1.361326 -0.382642,0.794719 -1.0817,1.170004 -1.44227,1.361325 -0.706417,0.375285 -1.309817,0.426795 -2.207555,0.507738 -0.235473,0.02208 -1.331891,0.110378 -2.77416,-0.139812 -0.55189,-0.09566 -1.00812,-0.213397 -1.331892,-0.309057 0.198678,-0.669625 0.39736,-1.339251 0.596038,-2.008876 0.537173,0.220755 1.008116,0.338492 1.361325,0.39736 0.816798,0.139812 1.412836,0.08094 1.869065,0.02944 0.206038,-0.02208 0.485662,-0.06623 0.79472,-0.228114 0.191322,-0.103019 0.412078,-0.220755 0.537172,-0.478304 0.02943,-0.05887 0.147171,-0.323774 0.05887,-0.625473 -0.05887,-0.191322 -0.183963,-0.323776 -0.338493,-0.456229 -0.382642,-0.316415 -0.750569,-0.456228 -1.074343,-0.596039 -0.691702,-0.286982 -1.037551,-0.434153 -1.361328,-0.64755 -0.294339,-0.206038 -0.603397,-0.419435 -0.824152,-0.824154 -0.213397,-0.39736 -0.235474,-0.765286 -0.257548,-1.044909 -0.01471,-0.183963 -0.03679,-0.654908 0.139812,-1.162646 0.29434,-0.84623 0.963965,-1.302458 1.302456,-1.530572 0.846231,-0.559247 1.677742,-0.640191 2.406237,-0.706418 0.772643,-0.06623 2.082462,-0.08094 3.679261,0.456228 -0.242832,0.654909 -0.478303,1.324534 -0.713776,1.994159 z"
       id="path426"
       style="stroke-width:0.07358517" />
  </g>
</svg>
