<?xml version="1.0" encoding="UTF-8" standalone="no"?>
<!-- Created with Inkscape (http://www.inkscape.org/) -->

<svg
   xmlns:dc="http://purl.org/dc/elements/1.1/"
   xmlns:cc="http://creativecommons.org/ns#"
   xmlns:rdf="http://www.w3.org/1999/02/22-rdf-syntax-ns#"
   xmlns:svg="http://www.w3.org/2000/svg"
   xmlns="http://www.w3.org/2000/svg"
   xmlns:sodipodi="http://sodipodi.sourceforge.net/DTD/sodipodi-0.dtd"
   xmlns:inkscape="http://www.inkscape.org/namespaces/inkscape"
   width="120"
   height="120"
   viewBox="0 0 31.749999 31.749999"
   version="1.1"
   id="svg387"
   inkscape:version="0.92.3 (2405546, 2018-03-11)"
   sodipodi:docname="o2_2.svg">
  <defs
     id="defs381" />
  <sodipodi:namedview
     id="base"
     pagecolor="#ffffff"
     bordercolor="#666666"
     borderopacity="1.0"
     inkscape:pageopacity="0.0"
     inkscape:pageshadow="2"
     inkscape:zoom="1.979899"
     inkscape:cx="224.21134"
     inkscape:cy="-14.730198"
     inkscape:document-units="mm"
     inkscape:current-layer="layer1"
     showgrid="false"
     fit-margin-top="0"
     fit-margin-left="0"
     fit-margin-right="0"
     fit-margin-bottom="0"
     units="px"
     inkscape:window-width="2256"
     inkscape:window-height="1410"
     inkscape:window-x="-11"
     inkscape:window-y="-11"
     inkscape:window-maximized="1" />
  <metadata
     id="metadata384">
    <rdf:RDF>
      <cc:Work
         rdf:about="">
        <dc:format>image/svg+xml</dc:format>
        <dc:type
           rdf:resource="http://purl.org/dc/dcmitype/StillImage" />
        <dc:title></dc:title>
      </cc:Work>
    </rdf:RDF>
  </metadata>
  <g
     inkscape:label="Layer 1"
     inkscape:groupmode="layer"
     id="layer1"
     transform="translate(-1.6540349,-66.855198)">
    <path
       style="fill:#000000;stroke-width:0.03482239"
       d="m 25.002472,97.220156 v -0.8505 l 0.426572,-0.392024 c 2.484847,-2.283579 3.53955,-3.58765 3.826208,-4.730846 0.230965,-0.921104 -0.280406,-1.622538 -1.298004,-1.780423 -0.308427,-0.04785 -0.76034,-1.68e-4 -1.200284,0.126765 -0.32377,0.09339 -0.927602,0.365028 -1.200385,0.540012 -0.08786,0.05636 -0.174944,0.102476 -0.193519,0.102476 -0.01859,0 -0.06157,-0.301648 -0.09554,-0.67033 -0.03398,-0.368683 -0.07017,-0.741803 -0.08043,-0.829156 l -0.01865,-0.158823 0.204299,-0.09149 c 0.604685,-0.270788 1.306216,-0.470603 1.990245,-0.566877 0.611209,-0.08602 1.426414,-0.05831 1.895129,0.06443 1.218845,0.319167 1.906911,1.176421 2.009739,2.503913 0.123559,1.595133 -0.711474,3.046388 -3.07221,5.339388 l -0.661125,0.642156 h 2.076925 2.076928 v 0.800914 0.800915 h -3.342946 -3.34295 z M 13.424027,92.289671 C 11.244453,92.130541 9.3371342,91.524027 7.8097537,90.504365 5.5298755,88.982347 4.026509,86.727774 3.2932622,83.731059 2.844582,81.897337 2.7339231,79.607049 2.9978808,77.617569 3.649495,72.706272 6.5387556,69.107612 10.796623,67.904001 c 1.16812,-0.330201 1.940735,-0.438979 3.306441,-0.465518 1.394853,-0.02711 2.326944,0.06743 3.503531,0.355365 2.796289,0.684292 5.102025,2.368486 6.5772,4.804228 0.453432,0.748689 0.933268,1.82404 1.196437,2.681324 0.926348,3.017587 0.871679,6.723132 -0.142561,9.663213 -1.354741,3.927116 -4.337405,6.473353 -8.401049,7.171802 -0.97093,0.16688 -2.471676,0.243952 -3.412595,0.175256 z m 2.193811,-4.020702 c 3.278757,-0.508076 5.377716,-2.934159 5.92068,-6.843417 0.07558,-0.544146 0.106721,-1.995275 0.05504,-2.564808 -0.177364,-1.954798 -0.787396,-3.633821 -1.80243,-4.960908 -0.32611,-0.426364 -0.980443,-1.060105 -1.405741,-1.361502 -1.187708,-0.841691 -2.622835,-1.250567 -4.212684,-1.200215 -0.669959,0.02122 -1.073707,0.07782 -1.654063,0.231877 -1.599346,0.424551 -2.9536255,1.47318 -3.8914006,3.01314 -1.5715349,2.580685 -1.8157986,6.416834 -0.5992212,9.410745 1.0318994,2.539435 2.9570598,4.038758 5.5527048,4.324477 0.409471,0.04507 1.61634,0.01581 2.03711,-0.04939 z"
       id="path370"
       inkscape:connector-curvature="0" />
  </g>
</svg>
