<?xml version="1.0" encoding="UTF-8" standalone="no"?>
<!-- Created with Inkscape (http://www.inkscape.org/) -->

<svg
   xmlns:dc="http://purl.org/dc/elements/1.1/"
   xmlns:cc="http://creativecommons.org/ns#"
   xmlns:rdf="http://www.w3.org/1999/02/22-rdf-syntax-ns#"
   xmlns:svg="http://www.w3.org/2000/svg"
   xmlns="http://www.w3.org/2000/svg"
   xmlns:sodipodi="http://sodipodi.sourceforge.net/DTD/sodipodi-0.dtd"
   xmlns:inkscape="http://www.inkscape.org/namespaces/inkscape"
   width="40"
   height="40"
   viewBox="0 0 31.749999 31.75"
   version="1.1"
   id="svg731"
   inkscape:version="0.92.3 (2405546, 2018-03-11)"
   sodipodi:docname="pb.svg">
  <defs
     id="defs725" />
  <sodipodi:namedview
     id="base"
     pagecolor="#ffffff"
     bordercolor="#666666"
     borderopacity="1.0"
     inkscape:pageopacity="0.0"
     inkscape:pageshadow="2"
     inkscape:zoom="3.959798"
     inkscape:cx="206.52238"
     inkscape:cy="15.926283"
     inkscape:document-units="mm"
     inkscape:current-layer="layer1"
     showgrid="false"
     fit-margin-top="0"
     fit-margin-left="0"
     fit-margin-right="0"
     fit-margin-bottom="0"
     units="px"
     inkscape:window-width="2256"
     inkscape:window-height="1410"
     inkscape:window-x="-11"
     inkscape:window-y="-11"
     inkscape:window-maximized="1" />
  <metadata
     id="metadata728">
    <rdf:RDF>
      <cc:Work
         rdf:about="">
        <dc:format>image/svg+xml</dc:format>
        <dc:type
           rdf:resource="http://purl.org/dc/dcmitype/StillImage" />
        <dc:title></dc:title>
      </cc:Work>
    </rdf:RDF>
  </metadata>
  <g
     inkscape:label="Layer 1"
     inkscape:groupmode="layer"
     id="layer1"
     transform="translate(-2.0909556,-83.97093)">
    <path
       style="stroke-width:0.0483102"
       d="m 16.791183,115.44423 c -1.472001,-0.13081 -3.025771,-0.49154 -4.36374,-1.01312 C 6.4214036,112.0898 2.4963857,106.35286 2.4918639,99.90897 2.4858039,91.286011 9.4502521,84.315217 18.071401,84.315217 c 5.489926,0 10.507081,2.832313 13.36186,7.543112 1.406153,2.320356 2.135628,4.836348 2.203842,7.601136 0.03049,1.235665 -0.02101,2.020715 -0.203143,3.096615 -1.046234,6.18049 -5.796559,11.18226 -11.92167,12.55274 -1.130277,0.2529 -1.795675,0.32355 -3.199336,0.33971 -0.717407,0.008 -1.402204,0.006 -1.521771,-0.004 z m 2.61571,-1.66222 c 3.346546,-0.33277 6.329758,-1.76471 8.666458,-4.1599 0.72193,-0.74 1.135162,-1.24401 1.63832,-1.99822 1.166335,-1.74828 1.8936,-3.64302 2.23445,-5.82138 0.06893,-0.44053 0.08693,-0.84567 0.08693,-1.95656 0,-1.110898 -0.018,-1.516038 -0.08693,-1.956566 -0.420862,-2.689718 -1.478496,-5.055634 -3.150528,-7.0477 -0.518918,-0.618239 -1.616264,-1.663698 -2.246417,-2.140195 -1.684924,-1.274075 -3.650238,-2.166447 -5.673487,-2.576109 -2.509694,-0.508157 -5.291285,-0.294571 -7.653217,0.587655 -1.965513,0.734158 -3.5332693,1.749087 -5.0576889,3.274234 -2.1900825,2.191124 -3.501209,4.826754 -3.9670565,7.974581 -0.1215364,0.821251 -0.1215364,2.94695 0,3.7682 0.4467276,3.01861 1.7247662,5.65714 3.7768436,7.79734 2.3638868,2.46539 5.3973288,3.91926 8.9132338,4.27193 0.397127,0.0399 2.059198,0.0284 2.519089,-0.0173 z m -2.712331,-1.06816 c -3.511472,-0.36116 -6.8251432,-2.22246 -8.9326166,-5.0175 -0.5626274,-0.74618 -0.9178502,-1.32945 -1.343223,-2.20553 -1.7168894,-3.53606 -1.697093,-7.742159 0.053172,-11.297166 1.0257608,-2.08345 2.5162024,-3.783513 4.4445276,-5.069623 0.321636,-0.214516 0.771927,-0.484722 1.000645,-0.600454 0.370205,-0.187326 0.438536,-0.206591 0.622504,-0.175508 0.401693,0.06786 0.683432,0.484958 0.577376,0.854756 -0.07539,0.262854 -0.180062,0.365135 -0.636017,0.621448 -2.778597,1.561978 -4.7765987,4.135942 -5.5649563,7.169166 -0.2702475,1.039782 -0.3378613,1.607166 -0.3399209,2.852511 -0.00192,1.17194 0.046695,1.68249 0.2414073,2.53426 0.7470312,3.26785 2.8304383,6.00729 5.7948909,7.6196 0.566634,0.30818 0.748808,0.49093 0.748808,0.75117 v 0.14173 l 0.16271,-0.10054 c 0.19698,-0.12174 0.512159,-0.13138 0.809496,-0.0248 0.394382,0.14142 1.465038,0.39862 2.023026,0.48597 0.785756,0.12302 2.55949,0.12429 3.33168,0.002 1.935813,-0.3056 3.679305,-1.03831 5.243967,-2.2038 0.630748,-0.46983 1.797729,-1.63699 2.258195,-2.25855 1.55009,-2.09233 2.317339,-4.36622 2.319758,-6.87499 0.0016,-1.639456 -0.293287,-3.083544 -0.934995,-4.579073 -1.112147,-2.591894 -3.280634,-4.795214 -5.833304,-5.927007 -1.543166,-0.684204 -2.968769,-0.991202 -4.703663,-1.01292 -0.897914,-0.01124 -0.90391,-0.01203 -1.073343,-0.141261 -0.33556,-0.255945 -0.351783,-0.733472 -0.03566,-1.0496 0.176539,-0.176537 0.182714,-0.178445 0.684413,-0.211372 0.811337,-0.05325 2.12936,0.06584 3.187818,0.288037 1.84832,0.388006 3.806316,1.331148 5.337944,2.571221 0.591697,0.479067 1.495974,1.386108 1.964013,1.970023 2.753908,3.435713 3.558757,8.087122 2.120885,12.257102 -0.645976,1.87341 -1.652134,3.47903 -3.067979,4.89586 -1.056084,1.05682 -2.00754,1.74583 -3.335809,2.41566 -1.473302,0.74298 -2.907433,1.15954 -4.558355,1.324 -0.584611,0.0582 -1.977854,0.0554 -2.567399,-0.005 z m 0.64299,-2.79897 c -0.194655,-0.12467 -0.329521,-0.45331 -0.284509,-0.69325 0.03394,-0.18088 0.216515,-0.43067 0.377939,-0.51706 0.05388,-0.0289 0.470023,-0.0714 0.924761,-0.0945 1.306868,-0.0665 2.295232,-0.3117 3.411389,-0.84645 2.508306,-1.20171 4.278269,-3.47434 4.866178,-6.24817 0.115689,-0.54582 0.128857,-0.71092 0.131259,-1.64536 0.0035,-1.366196 -0.139226,-2.166495 -0.585803,-3.284489 -0.823961,-2.062757 -2.361085,-3.72354 -4.339168,-4.688237 -1.303408,-0.635664 -2.563553,-0.916358 -4.113886,-0.916358 -0.448249,0 -0.637953,-0.01903 -0.745825,-0.07482 -0.448388,-0.23187 -0.437507,-0.97682 0.01769,-1.212219 0.345854,-0.178847 1.866083,-0.125906 3.014377,0.104975 3.571035,0.718007 6.539608,3.347882 7.670012,6.794905 0.363968,1.109879 0.510411,2.036006 0.510411,3.227913 0,1.20055 -0.148243,2.1318 -0.514966,3.23503 -1.367568,4.11409 -5.270608,6.96292 -9.532287,6.95761 -0.574774,-7.2e-4 -0.672014,-0.0127 -0.807584,-0.0995 z m -2.813515,-0.70891 c -0.09111,-0.0465 -0.210677,-0.14584 -0.265706,-0.22085 -0.09974,-0.13595 -0.100093,-0.15523 -0.112837,-6.01462 -0.0095,-4.345961 0.0016,-5.913296 0.04278,-6.012745 0.178179,-0.431344 1.349892,-1.090784 2.393247,-1.346916 0.502518,-0.123362 1.54544,-0.147663 2.021293,-0.0471 2.114877,0.446957 3.35756,1.906703 3.35756,3.944038 0,1.167723 -0.37413,2.119733 -1.153904,2.936213 -0.626105,0.65557 -1.353717,1.08921 -2.174339,1.29583 -0.564972,0.14226 -0.963052,0.11573 -1.164845,-0.0776 -0.217415,-0.20829 -0.268273,-0.43238 -0.205701,-0.90633 0.04722,-0.35763 0.06788,-0.40951 0.217749,-0.54686 0.124281,-0.11389 0.257975,-0.1723 0.536006,-0.23416 1.249689,-0.27803 2.109245,-1.30165 2.109245,-2.511847 0,-1.216516 -1.014745,-2.105055 -2.404044,-2.105055 -0.692946,0 -1.370972,0.214192 -1.578629,0.498699 -0.09876,0.135296 -0.09973,0.17904 -0.123692,5.540073 -0.02411,5.38856 -0.02443,5.40409 -0.12522,5.54008 -0.20457,0.27605 -0.382989,0.35378 -0.811894,0.3537 -0.277156,-5e-5 -0.439775,-0.0248 -0.557069,-0.0845 z m -2.181033,-0.89769 c -0.237206,-0.087 -0.89959,-0.59831 -1.416793,-1.09371 -1.7755858,-1.70076 -2.8695603,-3.94642 -3.1238046,-6.41241 -0.070975,-0.68841 -0.034592,-1.971268 0.07439,-2.622915 0.3192015,-1.908655 1.1030098,-3.584542 2.3696216,-5.066565 0.678286,-0.79364 1.740024,-1.69352 2.122841,-1.799221 0.402835,-0.111229 0.795405,0.162441 0.83578,0.582643 0.0358,0.372578 -0.0411,0.492496 -0.586986,0.915352 -3.3508323,2.595629 -4.4085799,7.145116 -2.532991,10.894646 0.608136,1.21574 1.474821,2.2654 2.578299,3.12263 0.520371,0.40426 0.601278,0.51649 0.600997,0.83366 -5.49e-4,0.48641 -0.466059,0.81282 -0.921354,0.64589 z m 5.148677,-1.20793 c -0.284273,-0.13342 -0.508346,-0.49442 -0.506196,-0.81552 0.0013,-0.22135 0.15014,-0.52523 0.331658,-0.67796 0.163936,-0.13796 0.197717,-0.14599 0.966692,-0.23006 2.085681,-0.22801 4.229834,-1.77768 5.005996,-3.61802 0.470758,-1.11622 0.539364,-2.46579 0.183136,-3.602557 -0.270483,-0.863138 -0.686281,-1.526529 -1.411601,-2.252154 -1.593006,-1.593672 -3.780029,-2.239834 -5.680821,-1.678413 -0.185992,0.05494 -0.525828,0.18434 -0.755188,0.287564 -0.605742,0.272618 -0.988426,0.254129 -1.283611,-0.06202 -0.260243,-0.278721 -0.255935,-0.217051 -0.255935,-3.663427 0,-2.771409 0.0098,-3.215135 0.07477,-3.370528 0.08835,-0.211448 0.23745,-0.380775 0.418011,-0.474722 0.170377,-0.08865 0.634462,-0.08701 0.808239,0.0029 0.189259,0.09787 0.376602,0.332777 0.436021,0.546725 0.03059,0.110159 0.05,0.9512 0.05017,2.174011 2.75e-4,2.184006 0.0021,2.20052 0.285063,2.438511 0.23479,0.197565 0.445169,0.236314 0.947117,0.174446 1.236071,-0.152351 2.68826,0.12888 4.009744,0.776528 2.297165,1.125819 3.832454,3.081348 4.260626,5.426851 0.110101,0.603141 0.110101,1.833965 0,2.437105 -0.258441,1.41572 -0.893596,2.64334 -1.914186,3.69971 -1.19541,1.23733 -2.693704,2.07277 -4.306903,2.40152 -0.644768,0.1314 -1.468383,0.1708 -1.6628,0.0795 z m -5.434873,-2.69247 c -0.192573,-0.081 -0.329691,-0.23504 -0.584968,-0.65755 -1.526232,-2.52609 -1.440164,-5.776855 0.218259,-8.243746 0.146235,-0.217525 0.352925,-0.480495 0.459309,-0.584377 0.165315,-0.161425 0.230568,-0.191856 0.448961,-0.209389 0.209883,-0.01684 0.285738,-1.45e-4 0.424616,0.09346 0.227319,0.153212 0.348836,0.396909 0.323379,0.648511 -0.01503,0.148488 -0.09851,0.307554 -0.332353,0.633213 -0.556537,0.775066 -0.928461,1.614224 -1.130278,2.550199 -0.11682,0.541776 -0.116996,1.789389 -2.75e-4,2.317469 0.186689,0.84503 0.508013,1.6342 0.922622,2.26597 0.08937,0.13617 0.176327,0.32469 0.193256,0.41893 0.04079,0.22709 -0.08936,0.54819 -0.276065,0.68114 -0.165703,0.11799 -0.490675,0.16002 -0.666411,0.0862 z"
       id="path638"
       inkscape:connector-curvature="0" />
  </g>
</svg>
