<?xml version="1.0" encoding="UTF-8" standalone="no"?>
<!-- Created with Inkscape (http://www.inkscape.org/) -->

<svg
   xmlns:dc="http://purl.org/dc/elements/1.1/"
   xmlns:cc="http://creativecommons.org/ns#"
   xmlns:rdf="http://www.w3.org/1999/02/22-rdf-syntax-ns#"
   xmlns:svg="http://www.w3.org/2000/svg"
   xmlns="http://www.w3.org/2000/svg"
   xmlns:sodipodi="http://sodipodi.sourceforge.net/DTD/sodipodi-0.dtd"
   xmlns:inkscape="http://www.inkscape.org/namespaces/inkscape"
   width="40"
   height="40"
   viewBox="0 0 31.75 31.749999"
   version="1.1"
   id="svg4988"
   inkscape:version="0.92.3 (2405546, 2018-03-11)"
   sodipodi:docname="skype.svg">
  <defs
     id="defs4982" />
  <sodipodi:namedview
     id="base"
     pagecolor="#ffffff"
     bordercolor="#666666"
     borderopacity="1.0"
     inkscape:pageopacity="0.0"
     inkscape:pageshadow="2"
     inkscape:zoom="1.979899"
     inkscape:cx="115.06626"
     inkscape:cy="-29.673871"
     inkscape:document-units="mm"
     inkscape:current-layer="layer1"
     showgrid="false"
     fit-margin-top="0"
     fit-margin-left="0"
     fit-margin-right="0"
     fit-margin-bottom="0"
     units="px"
     inkscape:window-width="2256"
     inkscape:window-height="1410"
     inkscape:window-x="-11"
     inkscape:window-y="-11"
     inkscape:window-maximized="1" />
  <metadata
     id="metadata4985">
    <rdf:RDF>
      <cc:Work
         rdf:about="">
        <dc:format>image/svg+xml</dc:format>
        <dc:type
           rdf:resource="http://purl.org/dc/dcmitype/StillImage" />
        <dc:title></dc:title>
      </cc:Work>
    </rdf:RDF>
  </metadata>
  <g
     inkscape:label="Layer 1"
     inkscape:groupmode="layer"
     id="layer1"
     transform="translate(-2.8801386,-2.5300098)">
    <path
       class="st0"
       d="m 34.032661,23.436743 c -0.162147,-0.68101 -0.40536,-1.21609 -0.591828,-1.58902 0.227002,-1.19176 0.40536,-2.90238 0.145928,-4.91297 -0.324289,-2.51323 -1.183653,-4.33736 -1.589013,-5.10754 -1.086363,-2.0916597 -2.38352,-3.3807097 -2.732129,-3.7212097 -0.75397,-0.73776 -3.096954,-2.83752 -6.550626,-3.57528 -1.54037,-0.32429 -3.121277,-0.3405 -3.818496,-0.34861 -0.972865,-0.008 -1.791694,0.0486 -2.383521,0.0973 -0.745863,-0.42158 -2.164625,-1.10259 -4.06982,-1.19176 -2.002482,-0.0973 -3.46178,0.51075 -3.7698542,0.64857 -1.8322295,0.7864 -2.8861677,2.04302 -3.3239568,2.62674 -1.3295827,1.78359 -1.5322628,3.5914895 -1.6133349,4.4184297 -0.064858,0.63236 -0.1702515,1.80791 0.2756454,3.22667 0.2351089,0.74586 0.5431829,1.32958 0.7945063,1.73494 -0.2026801,1.15933 -0.3729315,2.87806 -0.097287,4.91297 0.14593,1.06205 0.5026476,3.53475 2.1808405,6.15338 0.3810389,0.59182 3.0402045,4.6211 7.6937447,5.90204 1.775479,0.49454 3.688781,0.54319 4.21575,0.54319 1.19176,0.0162 2.188947,-0.0892 2.926703,-0.19458 0.689113,0.3324 3.502315,1.60523 6.745201,0.54319 0.64047,-0.21079 2.578092,-0.86748 4.021175,-2.78078 1.167439,-1.54037 1.410657,-3.11316 1.589016,-4.26439 0.267536,-1.72683 0.01622,-2.84563 -0.04864,-3.12127 z m -6.356055,-0.94044 c -0.01621,0.53507 -0.06486,1.93762 -0.940437,3.27531 -0.891792,1.37012 -2.164624,1.92952 -3.226669,2.38352 -3.469887,1.47551 -6.712771,0.59994 -7.588349,0.34861 -2.391628,-0.681 -3.640139,-1.86466 -3.923891,-2.13219 -0.648577,-0.63237 -1.532264,-1.52416 -1.589014,-2.82942 -0.01621,-0.31618 -0.06486,-1.54037 0.891794,-2.22948 0.705327,-0.51076 1.670085,-0.51076 2.334877,-0.14593 0.364824,0.19457 0.575611,0.49454 0.989079,1.09447 0.551291,0.77829 0.624256,1.1269 0.891793,1.54037 0.924222,1.41065 2.894275,1.65387 3.178027,1.6863 0,0 1.6863,0.18647 3.129384,-0.74586 0.510754,-0.3324 0.729648,-0.64047 0.84315,-0.84315 0.08107,-0.14593 0.381039,-0.72965 0.251323,-1.33769 -0.06486,-0.29186 -0.283752,-0.85937 -1.637656,-1.54037 -1.13501,-0.56751 -1.961946,-0.65669 -3.072634,-0.8918 -1.65387,-0.34861 -3.023989,-0.63236 -4.41843,-1.43497 -0.859364,-0.49454 -1.986266,-1.16744 -2.578093,-2.52945 -0.470219,-1.07826 -0.381039,-2.07545 -0.34861,-2.43217 0,0 0.137823,-1.3539 0.98908,-2.57809 1.921409,-2.7564497 6.526305,-3.1131697 9.428687,-2.5294497 0.20268,0.0405 2.140303,0.454 3.86714,1.7835897 0.55129,0.42968 0.95665,0.85125 1.240403,1.43497 0.121608,0.25943 0.470218,1.0053 0.299966,1.93763 -0.05675,0.29996 -0.14593,0.77829 -0.543183,1.19176 -0.591826,0.60804 -1.402547,0.59993 -1.589013,0.59182 -0.08107,0 -1.053938,-0.0243 -1.6863,-0.74586 -0.218895,-0.25132 -0.154037,-0.29997 -0.49454,-0.89179 -0.235109,-0.40536 -0.55129,-0.94855 -0.98908,-1.33769 -0.608041,-0.54319 -1.30526,-0.66479 -1.734943,-0.74587 -0.381039,-0.073 -1.216081,-0.21078 -2.18084,0.14593 -0.883686,0.3324 -1.418762,0.91612 -1.65387,1.20798 -0.186466,0.33239 -0.413469,0.86747 -0.23511,1.37012 0.218895,0.62425 0.948544,0.88368 2.034911,1.19176 2.261911,0.64047 2.942917,0.5675 4.515716,0.98908 2.261911,0.60804 3.332063,1.41065 3.623922,1.63765 1.021509,0.79451 1.394442,1.47552 1.540371,1.78359 0.413468,0.8999 0.397254,1.71062 0.381039,2.32677 z"
       id="path4875"
       inkscape:connector-curvature="0"
       style="stroke-width:0.08107211" />
  </g>
</svg>
