<svg id="Layer_3" enable-background="new 0 0 64 64" height="512" viewBox="0 0 64 64" width="512" xmlns="http://www.w3.org/2000/svg"><path d="m55 32c0-.366-.2-.703-.521-.878l-10.479-5.716v-9.406c0-.366-.2-.703-.521-.878l-11-6c-.299-.163-.659-.163-.958 0l-11 6c-.321.175-.521.512-.521.878v9.406l-10.479 5.716c-.321.175-.521.512-.521.878v10c0 .366.2.703.521.878l11 6c.149.081.314.122.479.122s.33-.041.479-.122l10.521-5.739 10.521 5.739c.149.081.314.122.479.122s.33-.041.479-.122l11-6c.321-.175.521-.512.521-.878zm-12 4.861-8.912-4.861 8.912-4.861 8.912 4.861zm-21 1.733 9-4.909v7.722l-9 4.91zm0-20.909 9 4.909v7.722l-9-4.909zm11 4.909 9-4.909v7.722l-9 4.909zm-1-11.455 8.912 4.861-8.912 4.861-8.912-4.861zm-11 16 8.912 4.861-8.912 4.861-8.912-4.861zm-10 6.546 9 4.909v7.722l-9-4.91zm22 0 9 4.909v7.722l-9-4.91zm11 12.631v-7.722l9-4.909v7.722z"/><path d="m32 60.882-1.337-.669-.895 1.789 1.785.893c.14.07.294.105.447.105s.307-.035.447-.105l1.789-.895-.895-1.789z"/><path d="m45.154 53.5h3.693v2h-3.693z" transform="matrix(.894 -.447 .447 .894 -19.411 26.773)"/><path d="m55.062 48.546h3.693v2h-3.693z" transform="matrix(.894 -.447 .447 .894 -16.15 30.681)"/><path d="m35.246 58.454h3.693v2h-3.693z" transform="matrix(.894 -.447 .447 .894 -22.673 22.865)"/><path d="m40.2 55.977h3.693v2h-3.693z" transform="matrix(.894 -.447 .447 .894 -21.042 24.819)"/><path d="m50.108 51.023h3.693v2h-3.693z" transform="matrix(.894 -.447 .447 .894 -17.78 28.727)"/><path d="m61 46.382-1.236.618.895 1.789 1.789-.895c.338-.169.552-.515.552-.894v-2h-2z"/><path d="m61 27h2v4h-2z"/><path d="m61 21h2v4h-2z"/><path d="m61 33h2v4h-2z"/><path d="m61 39h2v4h-2z"/><path d="m62.447 16.105-1.785-.893-.895 1.789 1.233.617v1.382h2v-2c0-.379-.214-.725-.553-.895z"/><path d="m36.073 2.688h2v3.697h-2z" transform="matrix(.447 -.894 .894 .447 16.436 35.667)"/><path d="m45.992 7.647h2v3.697h-2z" transform="matrix(.447 -.894 .894 .447 17.477 47.275)"/><path d="m41.033 5.168h2v3.696h-2z" transform="matrix(.447 -.895 .895 .447 16.962 41.475)"/><path d="m55.911 12.607h2v3.697h-2z" transform="matrix(.447 -.894 .894 .447 18.53 58.894)"/><path d="m50.951 10.128h2v3.696h-2z" transform="matrix(.447 -.895 .895 .447 18.009 53.089)"/><path d="m32 3.118 1.337.669.895-1.789-1.785-.893c-.281-.141-.613-.141-.895 0l-1.788.895.895 1.789z"/><path d="m10.2 10.977h3.693v2h-3.693z" transform="matrix(.894 -.447 .447 .894 -4.085 6.652)"/><path d="m15.154 8.5h3.693v2h-3.693z" transform="matrix(.894 -.447 .447 .894 -2.454 8.606)"/><path d="m5.245 13.454h3.693v2h-3.693z" transform="matrix(.894 -.447 .447 .894 -5.716 4.698)"/><path d="m20.108 6.023h3.693v2h-3.693z" transform="matrix(.894 -.447 .447 .894 -.823 10.56)"/><path d="m25.062 3.546h3.693v2h-3.693z" transform="matrix(.894 -.447 .447 .894 .808 12.514)"/><path d="m1.553 16.105c-.339.17-.553.516-.553.895v2h2v-1.382l1.236-.618-.895-1.789z"/><path d="m1 39h2v4h-2z"/><path d="m1 27h2v4h-2z"/><path d="m1 21h2v4h-2z"/><path d="m1 33h2v4h-2z"/><path d="m3 45h-2v2c0 .379.214.725.553.895l1.785.893.895-1.789-1.233-.617z"/><path d="m20.967 55.136h2v3.696h-2z" transform="matrix(.447 -.894 .894 .447 -38.824 51.145)"/><path d="m6.089 47.696h2v3.698h-2z" transform="matrix(.447 -.894 .894 .447 -40.395 33.726)"/><path d="m25.927 57.615h2v3.698h-2z" transform="matrix(.447 -.894 .894 .447 -38.301 56.94)"/><path d="m16.007 52.656h2v3.696h-2z" transform="matrix(.447 -.894 .894 .447 -39.348 45.335)"/><path d="m11.049 50.175h2v3.697h-2z" transform="matrix(.447 -.894 .894 .447 -39.871 39.535)"/></svg>