<?xml version="1.0" encoding="iso-8859-1"?>
<!-- Generator: Adobe Illustrator 19.0.0, SVG Export Plug-In . SVG Version: 6.00 Build 0)  -->
<svg version="1.1" id="Capa_1" xmlns="http://www.w3.org/2000/svg" xmlns:xlink="http://www.w3.org/1999/xlink" x="0px" y="0px"
	 viewBox="0 0 512 512" style="enable-background:new 0 0 512 512;" xml:space="preserve">
<g>
	<g>
		<path d="M282.208,19.67c-3.648-3.008-8.48-4.256-13.152-3.392l-256,48C5.472,65.686,0,72.278,0,79.99v352
			c0,7.68,5.472,14.304,13.056,15.712l256,48c0.96,0.192,1.984,0.288,2.944,0.288c3.68,0,7.328-1.28,10.208-3.68
			c3.68-3.04,5.792-7.584,5.792-12.32v-448C288,27.222,285.888,22.71,282.208,19.67z M256,460.694L32,418.71V93.27l224-41.984
			V460.694z"/>
	</g>
</g>
<g>
	<g>
		<path d="M223.008,330.518l-64-176c-4.576-12.672-25.44-12.672-30.048,0l-64,176c-3.008,8.32,1.28,17.504,9.568,20.512
			c8.384,3.072,17.504-1.248,20.512-9.568L144,206.806l48.96,134.656c2.368,6.496,8.512,10.528,15.04,10.528
			c1.824,0,3.648-0.32,5.44-0.96C221.728,348.022,226.048,338.838,223.008,330.518z"/>
	</g>
</g>
<g>
	<g>
		<path d="M190.4,271.99H97.6c-8.864,0-16,7.168-16,16c0,8.832,7.168,16,16,16h92.8c8.864,0,16-7.168,16-16
			C206.4,279.158,199.232,271.99,190.4,271.99z"/>
	</g>
</g>
<g>
	<g>
		<path d="M352,47.99c-30.528,0-59.456,3.008-83.68,8.736c-8.608,2.016-13.92,10.656-11.872,19.264
			c1.984,8.608,10.496,13.792,19.232,11.904c21.856-5.184,48.224-7.904,76.32-7.904c84,0,128,23.776,128,32s-44,32-128,32
			c-28.096,0-54.464-2.72-76.32-7.904c-8.736-2.016-17.248,3.296-19.232,11.904c-2.048,8.608,3.264,17.248,11.872,19.264
			c24.224,5.728,53.152,8.736,83.68,8.736c77.056,0,160-20.032,160-64S429.056,47.99,352,47.99z"/>
	</g>
</g>
<g>
	<g>
		<path d="M496,191.99c-8.832,0-16,7.168-16,16c0,8.224-44,32-128,32c-28.096,0-54.464-2.72-76.288-7.904
			c-8.768-1.952-17.28,3.296-19.264,11.904c-2.048,8.608,3.264,17.248,11.872,19.264c24.224,5.728,53.152,8.736,83.68,8.736
			c77.056,0,160-20.032,160-64C512,199.158,504.832,191.99,496,191.99z"/>
	</g>
</g>
<g>
	<g>
		<path d="M496,287.99c-8.832,0-16,7.168-16,16c0,8.224-44,32-128,32c-28.096,0-54.464-2.72-76.288-7.872
			c-8.768-2.176-17.28,3.264-19.264,11.872c-2.048,8.64,3.264,17.248,11.872,19.264c24.224,5.696,53.152,8.736,83.68,8.736
			c77.056,0,160-20.032,160-64C512,295.158,504.832,287.99,496,287.99z"/>
	</g>
</g>
<g>
	<g>
		<path d="M496,383.99c-8.832,0-16,7.168-16,16c0,8.224-44,32-128,32c-28.096,0-54.464-2.72-76.288-7.872
			c-8.768-2.208-17.28,3.264-19.264,11.872c-2.048,8.64,3.264,17.248,11.872,19.264c24.224,5.696,53.152,8.736,83.68,8.736
			c77.056,0,160-20.032,160-64C512,391.158,504.832,383.99,496,383.99z"/>
	</g>
</g>
<g>
	<g>
		<path d="M496,95.99c-8.832,0-16,7.168-16,16v288c0,8.832,7.168,16,16,16c8.832,0,16-7.168,16-16v-288
			C512,103.158,504.832,95.99,496,95.99z"/>
	</g>
</g>
<g>
</g>
<g>
</g>
<g>
</g>
<g>
</g>
<g>
</g>
<g>
</g>
<g>
</g>
<g>
</g>
<g>
</g>
<g>
</g>
<g>
</g>
<g>
</g>
<g>
</g>
<g>
</g>
<g>
</g>
</svg>
